<?xml version="1.0" standalone="no"?>
<!DOCTYPE svg PUBLIC "-//W3C//DTD SVG 20010904//EN"
 "http://www.w3.org/TR/2001/REC-SVG-20010904/DTD/svg10.dtd">
<svg version="1.0" xmlns="http://www.w3.org/2000/svg"
 width="553.000000pt" height="535.000000pt" viewBox="0 0 553.000000 535.000000"
 preserveAspectRatio="xMidYMid meet">

<g transform="translate(0.000000,535.000000) scale(0.100000,-0.100000)"
fill="#000000" stroke="none">
<path d="M2725 5269 c-138 -56 -336 -142 -332 -145 2 -2 59 20 128 49 68 30
156 66 196 82 70 27 72 27 119 11 26 -9 49 -14 51 -12 5 4 -86 36 -101 35 -6
0 -33 -9 -61 -20z"/>
<path d="M2910 5242 c8 -5 26 -13 40 -16 17 -5 20 -4 10 2 -8 5 -26 13 -40 16
-17 5 -20 4 -10 -2z"/>
<path d="M2981 5216 c8 -8 133 -56 136 -52 2 2 -26 15 -62 30 -62 25 -84 31
-74 22z"/>
<path d="M3131 5156 c5 -5 207 -95 229 -102 34 -12 -51 32 -133 68 -81 35
-107 44 -96 34z"/>
<path d="M2524 5017 c-1146 -539 -1892 -1068 -2257 -1604 l-49 -71 12 -148
c75 -972 327 -1761 800 -2504 47 -74 104 -160 127 -192 l42 -56 208 -50 c879
-213 1768 -215 2669 -8 248 57 226 46 287 134 198 282 424 698 555 1022 214
531 316 1016 338 1611 l7 185 -87 105 c-431 516 -943 948 -1516 1279 -246 142
-820 410 -876 410 -11 0 -127 -51 -260 -113z m433 37 c543 -225 1070 -544
1513 -915 153 -128 418 -386 550 -534 170 -192 217 -254 224 -295 9 -60 -12
-451 -34 -621 -93 -727 -357 -1410 -809 -2094 -47 -71 -88 -133 -91 -137 -16
-21 -445 -113 -705 -152 -333 -49 -494 -60 -870 -60 -522 0 -861 41 -1347 161
l-187 46 -81 119 c-515 753 -802 1608 -880 2625 l-11 143 42 62 c119 177 353
423 569 600 390 318 952 656 1610 967 129 61 253 120 275 130 22 11 48 20 57
20 9 1 88 -29 175 -65z"/>
<path d="M2656 4668 c-3 -17 -6 -91 -6 -164 l0 -134 110 0 c104 0 112 1 135
25 33 32 34 87 2 119 -23 23 -23 24 -5 46 36 45 12 113 -44 124 -13 3 -60 7
-104 10 l-82 5 -6 -31z m175 -38 c47 -26 8 -70 -62 -70 l-49 0 0 40 0 40 46 0
c25 0 54 -5 65 -10z m9 -140 c20 -20 18 -47 -4 -62 -6 -4 -37 -8 -68 -8 l-58
0 0 45 0 45 55 0 c41 0 60 -5 75 -20z"/>
<path d="M2338 4653 c-10 -2 -18 -6 -18 -8 0 -11 70 -309 74 -312 8 -8 56 10
56 21 0 6 -15 76 -33 156 -33 148 -37 155 -79 143z"/>
<path d="M3044 4512 c-74 -120 -88 -148 -75 -154 32 -14 50 -7 70 26 l21 33
62 -11 c61 -11 63 -12 74 -51 9 -33 16 -41 42 -46 18 -4 32 -4 32 0 0 13 -68
333 -72 335 -1 2 -17 6 -34 9 -30 6 -32 4 -120 -141z m120 21 c12 -77 10 -82
-31 -76 -21 3 -39 7 -41 8 -5 4 52 105 59 105 4 0 9 -17 13 -37z"/>
<path d="M2055 4573 c-44 -14 -81 -26 -82 -27 -2 -1 21 -72 50 -158 l52 -155
28 9 c32 11 32 10 8 81 -11 30 -17 58 -14 61 4 3 20 6 37 6 20 0 48 -14 88
-46 57 -44 59 -45 95 -33 l37 12 -40 34 c-21 19 -52 41 -69 50 -16 8 -31 17
-33 18 -2 2 8 14 22 28 29 29 33 65 11 106 -25 50 -69 53 -190 14z m135 -54
c15 -28 -8 -53 -66 -73 -44 -15 -45 -14 -53 7 -23 62 -23 63 16 74 63 17 91
15 103 -8z"/>
<path d="M3367 4447 c-31 -78 -57 -148 -57 -154 0 -13 35 -27 48 -19 5 3 24
44 42 91 18 47 36 82 40 78 4 -4 15 -57 25 -116 17 -102 20 -109 48 -123 16
-9 30 -14 32 -12 3 3 38 88 106 260 l18 46 -29 10 -29 11 -37 -95 c-21 -52
-40 -94 -44 -94 -4 0 -15 54 -25 119 -16 107 -21 120 -42 130 -13 6 -27 11
-32 11 -4 0 -33 -64 -64 -143z"/>
<path d="M3760 4337 l0 -114 -39 -60 -39 -60 28 -16 28 -17 38 58 c35 55 43
61 136 103 54 24 98 47 98 50 0 4 -12 15 -27 24 -26 17 -28 17 -90 -14 -35
-17 -66 -31 -69 -31 -3 0 -4 33 -2 74 3 73 3 74 -29 95 l-33 21 0 -113z"/>
<path d="M1763 4429 c-49 -14 -109 -77 -117 -121 -22 -121 93 -238 203 -208
56 15 122 70 137 113 5 17 -43 127 -57 127 -12 0 -119 -62 -119 -69 0 -4 6
-15 13 -25 12 -17 14 -17 45 1 28 16 34 16 42 3 14 -22 13 -27 -19 -62 -38
-43 -98 -46 -137 -7 -38 38 -55 96 -40 134 17 42 74 70 110 54 22 -10 29 -9
46 6 28 25 25 34 -15 51 -39 16 -47 16 -92 3z"/>
<path d="M2750 4204 c0 -91 -18 -171 -56 -247 -21 -41 -28 -71 -32 -142 l-5
-89 -14 44 c-7 25 -20 78 -28 118 -21 103 -48 137 -139 172 -23 8 -24 8 -19
-31 3 -22 -3 -89 -13 -150 -18 -109 -15 -163 12 -234 4 -11 -21 9 -57 46 -35
36 -81 75 -103 87 l-39 23 7 -23 c25 -84 36 -166 31 -217 -4 -31 -2 -68 3 -82
8 -21 7 -28 -10 -38 -19 -12 -26 -7 -75 41 -73 71 -196 217 -273 325 l-62 88
7 -90 c4 -49 18 -139 30 -200 12 -60 22 -111 21 -112 -2 -3 -52 63 -135 177
l-54 75 7 -95 c8 -119 29 -242 60 -348 13 -45 20 -80 16 -77 -9 6 -168 216
-195 258 -10 15 -20 25 -22 23 -6 -6 98 -152 182 -256 34 -41 82 -114 107
-161 l45 -86 -18 -69 c-10 -38 -18 -87 -19 -109 -1 -74 -12 -73 -84 12 -128
148 -143 173 -165 258 -28 109 -51 259 -55 356 -4 81 -16 124 -16 55 0 -90 41
-366 66 -443 8 -25 -22 11 -92 112 l-56 80 6 -95 c9 -131 32 -277 60 -390 14
-52 24 -96 23 -97 -2 -1 -40 51 -86 115 l-84 117 7 -112 c14 -249 77 -504 170
-698 61 -126 125 -219 221 -322 l67 -73 -97 0 c-95 0 -96 0 -173 -44 -150 -87
-411 -207 -542 -250 l-133 -43 102 -55 103 -55 -86 -78 c-47 -42 -86 -81 -86
-86 0 -17 184 -10 261 10 92 24 236 86 312 134 184 118 306 135 445 60 181
-97 245 -120 438 -154 172 -30 499 -37 652 -15 141 21 271 58 342 98 218 123
286 127 452 26 132 -80 254 -138 336 -159 90 -22 235 -34 277 -21 l29 8 -97
78 c-53 42 -97 78 -97 80 0 2 51 25 113 51 61 27 116 51 120 55 4 4 -23 12
-61 18 -193 32 -414 128 -582 252 l-94 70 -82 0 c-44 0 -83 3 -86 6 -4 3 23
36 59 72 176 181 289 431 343 757 24 142 39 391 23 382 -6 -4 -8 -25 -6 -50 7
-58 -13 -266 -38 -396 -103 -535 -406 -875 -894 -1002 -167 -43 -315 -60 -433
-48 -275 28 -512 106 -707 233 -91 60 -261 237 -324 339 -101 164 -170 360
-210 597 -24 141 -37 299 -24 285 5 -5 61 -80 125 -165 132 -178 245 -307 379
-435 97 -92 246 -212 254 -204 2 3 -37 36 -88 74 -111 85 -304 275 -410 406
-88 109 -105 150 -142 334 -22 110 -49 334 -42 342 2 1 27 -31 57 -73 60 -87
180 -239 262 -332 l55 -64 11 -97 c24 -211 109 -387 256 -530 30 -30 53 -58
51 -62 -11 -17 186 -116 305 -153 455 -144 921 102 1385 728 104 142 168 236
162 242 -2 2 -28 -32 -57 -76 -29 -44 -56 -82 -59 -85 -4 -2 4 47 16 108 22
111 48 371 42 416 -3 21 -13 11 -62 -63 -32 -48 -57 -90 -54 -92 2 -2 25 27
51 66 25 38 49 70 52 70 17 0 -25 -346 -57 -475 -18 -71 -29 -90 -102 -184
-167 -215 -431 -461 -587 -549 -53 -30 -51 -22 3 13 62 42 163 141 212 210 89
126 138 253 156 414 l12 96 67 80 c104 125 192 244 186 254 -4 5 3 61 14 124
10 63 22 171 26 239 l6 123 -78 -115 c-99 -145 -158 -221 -151 -195 37 130 56
247 63 385 4 63 4 112 0 109 -4 -4 -9 -51 -11 -105 -7 -214 -70 -456 -153
-593 l-19 -32 -37 76 c-19 42 -45 90 -57 106 l-20 29 30 54 c17 29 42 84 56
121 14 37 45 93 69 124 61 80 129 182 124 187 -2 2 -37 -44 -77 -102 -40 -58
-74 -104 -76 -102 -2 2 3 30 10 63 16 66 40 296 33 315 -2 7 -26 -21 -52 -61
-78 -117 -160 -221 -244 -310 -73 -77 -79 -81 -99 -68 -46 28 -43 214 5 311
l28 56 -26 -13 c-47 -25 -130 -95 -162 -138 -24 -34 -29 -37 -25 -17 3 14 11
57 18 97 12 76 15 60 -58 322 -11 39 -78 -72 -114 -189 l-23 -75 -8 88 c-12
139 -62 307 -112 379 -15 21 -16 18 -16 -58z m-773 -464 c82 -109 224 -272
259 -295 l24 -15 -90 -88 c-50 -48 -93 -89 -98 -92 -4 -3 -30 41 -59 98 -53
106 -95 254 -108 377 -3 33 -8 76 -11 95 -7 42 -8 43 83 -80z m1642 2 c-10
-112 -30 -219 -56 -297 -15 -48 -90 -205 -97 -205 -2 0 -44 41 -94 91 l-92 91
73 82 c97 108 143 165 212 264 31 46 59 82 61 80 1 -2 -1 -50 -7 -106z m-1757
-173 c52 -69 102 -145 112 -170 9 -24 33 -70 52 -102 40 -68 40 -70 14 -107
-11 -15 -35 -60 -54 -100 l-35 -72 -30 54 c-40 68 -84 182 -110 283 -27 102
-62 360 -47 344 2 -2 46 -60 98 -130z m2049 -201 c-7 -73 -21 -178 -32 -232
-22 -110 -30 -124 -168 -290 -77 -93 -91 -97 -91 -28 0 18 -7 64 -16 102 l-15
69 53 108 c30 59 81 144 114 188 34 44 83 113 109 153 27 40 50 70 53 68 2 -3
-1 -65 -7 -138z m-871 -113 c0 -23 -39 -53 -94 -72 -40 -14 -82 -18 -196 -17
-155 0 -211 12 -257 56 -50 47 -43 48 262 48 243 0 285 -2 285 -15z m-90 -127
c0 -27 -79 -60 -160 -66 -120 -8 -242 35 -225 79 6 15 23 16 148 12 79 -3 158
-1 177 4 40 11 60 1 60 -29z m-165 -74 c44 3 93 9 108 12 25 6 28 4 25 -12 -9
-47 -121 -84 -210 -69 -73 12 -124 47 -113 77 5 13 13 13 58 1 35 -10 78 -13
132 -9z m-493 -136 l2 -103 3 98 c2 53 6 97 9 97 3 0 53 -34 110 -76 l104 -76
0 -86 0 -87 -103 -109 -102 -110 -6 85 -5 84 -2 -95 -2 -95 -60 -45 c-55 -41
-65 -50 -57 -50 2 0 37 25 77 55 l74 55 188 0 c177 0 188 -1 188 -19 0 -10 3
-39 6 -65 l7 -47 -259 6 c-142 4 -269 8 -281 11 l-23 4 0 335 0 335 65 0 65 0
2 -102z m1068 -233 c0 -184 -2 -335 -5 -335 -14 0 -199 168 -272 249 l-83 90
0 84 0 84 108 77 107 78 5 -194 6 -193 2 198 2 197 65 0 65 0 0 -335z m-637
289 c24 -4 68 -1 97 5 40 9 55 9 61 0 14 -24 -5 -52 -49 -71 -84 -38 -193 -7
-200 57 -3 25 -1 27 22 21 14 -3 46 -9 69 -12z m12 -91 c23 -3 58 0 80 6 21 6
40 9 42 7 2 -1 -4 -69 -12 -151 -9 -81 -14 -157 -12 -169 2 -12 5 -3 6 19 3
83 5 85 84 85 70 0 72 -1 114 -42 24 -23 43 -46 43 -50 0 -4 -53 -9 -117 -11
l-118 -3 125 -2 126 -2 49 -50 49 -50 -181 0 -182 0 -3 43 c-2 23 -14 -67 -27
-200 -14 -134 -27 -243 -31 -243 -3 0 -27 177 -54 393 -26 215 -50 403 -53
416 -5 21 -3 23 13 17 10 -5 37 -10 59 -13z m-52 -240 c4 -21 9 -68 13 -105
l7 -68 -187 0 -187 0 98 105 98 105 76 0 76 0 6 -37z m382 -193 l160 0 65 -60
65 -59 -272 -1 -272 0 5 53 c8 79 9 80 52 73 20 -3 109 -6 197 -6z m-1077
-814 c189 -132 422 -211 720 -246 66 -7 118 -7 180 0 277 34 488 107 670 233
l72 50 92 -2 c102 -3 104 -3 223 -91 134 -99 368 -202 515 -225 78 -13 75 -19
-36 -65 -58 -25 -108 -48 -110 -51 -2 -4 39 -41 91 -82 84 -66 92 -75 73 -81
-114 -30 -373 44 -551 157 -189 121 -296 127 -452 27 -76 -50 -166 -83 -297
-112 -92 -20 -130 -22 -353 -22 -207 1 -272 5 -376 22 -188 32 -321 78 -429
147 -120 79 -290 68 -435 -29 -79 -52 -185 -103 -288 -138 -71 -24 -115 -32
-194 -36 -57 -2 -103 -1 -102 4 0 5 38 43 85 84 l84 74 -53 29 c-28 17 -72 41
-96 54 l-43 25 113 38 c150 49 292 113 469 210 l145 79 103 1 103 0 77 -54z"/>
<path d="M1823 1528 c-7 -7 -17 -26 -22 -41 -10 -26 -9 -27 15 -21 17 4 29 2
35 -7 14 -22 11 20 -4 55 -10 24 -14 26 -24 14z"/>
<path d="M1700 1510 c0 -13 7 -20 20 -20 11 0 20 -5 20 -11 0 -6 -9 -9 -20 -6
-21 5 -28 -7 -10 -18 16 -10 50 5 50 21 0 8 -11 19 -25 24 -30 11 -34 25 -5
17 11 -3 20 -1 20 4 0 5 -11 9 -25 9 -18 0 -25 -5 -25 -20z"/>
<path d="M1911 1507 c-17 -43 -14 -68 4 -37 14 24 14 24 15 3 0 -21 16 -40 26
-31 2 3 6 20 10 39 l5 34 -15 -25 c-14 -22 -15 -23 -16 -5 0 11 -4 27 -10 35
-7 11 -11 9 -19 -13z"/>
<path d="M3708 1513 c-2 -5 -1 -24 3 -43 l6 -35 2 43 c1 39 -3 52 -11 35z"/>
<path d="M3760 1480 c0 -36 2 -40 25 -40 32 0 55 41 35 65 -7 8 -23 15 -36 15
-21 0 -24 -5 -24 -40z m48 2 c3 -16 -2 -22 -16 -22 -15 0 -18 5 -14 25 5 30
26 28 30 -3z"/>
<path d="M1607 1473 c-7 -40 -1 -56 13 -34 4 8 17 12 29 8 26 -6 26 -2 0 34
-27 38 -35 37 -42 -8z m28 8 c3 -5 1 -12 -5 -16 -5 -3 -10 1 -10 9 0 18 6 21
15 7z"/>
<path d="M3605 1473 c8 -47 8 -47 40 -39 45 11 31 76 -17 76 -29 0 -30 -1 -23
-37z m44 8 c8 -14 7 -22 -3 -30 -16 -14 -26 -4 -26 26 0 28 15 30 29 4z"/>
<path d="M3868 1497 c-5 -10 -8 -31 -8 -45 1 -24 2 -25 11 -9 6 10 9 30 7 45
-2 23 -4 24 -10 9z"/>
<path d="M3922 1477 c-7 -16 -12 -36 -12 -45 0 -13 2 -13 15 4 14 19 15 19 21
-3 3 -13 11 -23 16 -23 5 0 6 9 3 20 -4 12 -1 28 7 37 11 14 10 16 -9 11 -15
-4 -23 -1 -26 11 -3 12 -7 8 -15 -12z"/>
<path d="M1541 1468 c-5 -14 -10 -17 -15 -10 -4 7 -13 12 -19 12 -7 -1 -3 -8
9 -18 11 -9 25 -26 31 -37 10 -16 11 -12 11 28 0 52 -4 59 -17 25z"/>
<path d="M3548 1468 c5 -23 5 -23 -16 -4 -12 11 -25 17 -28 13 -9 -8 6 -66 18
-73 7 -5 9 2 4 22 l-8 29 24 -23 c31 -28 39 -21 25 24 -11 37 -29 48 -19 12z"/>
<path d="M2037 1451 c-20 -35 -23 -65 -4 -41 7 8 23 15 37 15 30 0 33 22 5 41
-19 12 -22 11 -38 -15z m40 -17 c-9 -9 -28 6 -21 18 4 6 10 6 17 -1 6 -6 8
-13 4 -17z"/>
<path d="M3429 1447 c-25 -11 -26 -13 -13 -44 8 -18 18 -33 23 -33 18 0 41 12
41 21 0 6 -9 5 -20 -1 -26 -14 -28 7 -3 25 15 11 14 12 -11 8 -20 -4 -27 -2
-22 6 4 6 14 11 22 11 8 0 14 5 14 10 0 12 1 12 -31 -3z"/>
<path d="M4014 1418 c-19 -20 -23 -29 -11 -25 23 9 47 -2 48 -22 1 -9 5 0 10
19 16 66 -2 77 -47 28z m36 -4 c0 -8 -5 -12 -10 -9 -6 4 -8 11 -5 16 9 14 15
11 15 -7z"/>
<path d="M1440 1400 c0 -40 13 -53 24 -25 3 8 15 15 27 15 l22 0 -23 25 c-35
37 -50 32 -50 -15z m30 10 c0 -5 -2 -10 -4 -10 -3 0 -8 5 -11 10 -3 6 -1 10 4
10 6 0 11 -4 11 -10z"/>
<path d="M2114 1398 c-15 -30 -15 -32 2 -45 23 -17 44 -16 22 1 -24 18 -23 30
2 23 11 -3 20 -1 20 4 0 5 -4 9 -10 9 -5 0 -10 5 -10 11 0 6 9 8 23 4 21 -6
21 -6 3 9 -28 22 -33 20 -52 -16z"/>
<path d="M1387 1397 c-5 -14 -13 -17 -29 -12 -18 6 -16 1 12 -23 19 -17 36
-29 36 -29 1 1 -1 20 -5 42 -5 30 -8 35 -14 22z"/>
<path d="M3333 1402 c-10 -6 -10 -15 -1 -40 7 -18 16 -32 21 -32 5 0 7 6 4 13
-3 7 3 19 14 25 11 7 16 18 13 27 -7 16 -31 20 -51 7z m28 -25 c-13 -13 -26
-3 -16 12 3 6 11 8 17 5 6 -4 6 -10 -1 -17z"/>
<path d="M4106 1379 c-10 -17 -15 -33 -12 -36 3 -3 8 2 12 11 10 25 22 19 16
-9 -2 -14 0 -25 6 -25 13 0 54 51 47 58 -3 3 -12 -3 -20 -14 -14 -18 -14 -17
-15 14 0 40 -11 41 -34 1z"/>
<path d="M2191 1359 c-13 -39 -13 -39 -2 -39 5 0 12 8 14 18 4 13 5 11 6 -5 1
-27 16 -30 31 -5 9 14 10 13 4 -7 -9 -34 12 -18 24 19 12 34 0 40 -28 15 -16
-14 -17 -14 -13 10 8 37 -22 32 -36 -6z"/>
<path d="M3228 1333 c-6 -46 -4 -50 18 -29 12 13 19 14 30 5 25 -20 16 15 -9
39 -31 29 -34 28 -39 -15z m27 8 c3 -5 1 -12 -5 -16 -5 -3 -10 1 -10 9 0 18 6
21 15 7z"/>
<path d="M2292 1323 c-13 -43 -13 -43 23 -46 23 -2 29 3 36 28 9 32 5 39 -27
49 -17 5 -22 0 -32 -31z m48 7 c0 -5 -7 -10 -15 -10 -8 0 -15 5 -15 10 0 6 7
10 15 10 8 0 15 -4 15 -10z m-10 -30 c0 -5 -7 -10 -15 -10 -8 0 -15 5 -15 10
0 6 7 10 15 10 8 0 15 -4 15 -10z"/>
<path d="M3130 1336 c-19 -23 -8 -61 18 -64 13 -2 29 2 37 8 18 15 8 41 -12
33 -12 -5 -12 -7 -2 -14 10 -6 9 -10 -5 -15 -11 -4 -21 -2 -27 7 -13 20 -6 34
19 37 12 2 20 8 17 13 -9 14 -31 11 -45 -5z"/>
<path d="M2386 1309 c-8 -42 -8 -51 3 -45 11 7 20 65 11 71 -4 3 -10 -9 -14
-26z"/>
<path d="M2437 1323 c-4 -3 -7 -22 -6 -42 1 -32 2 -33 8 -11 l8 25 13 -27 c16
-34 30 -36 30 -4 0 13 3 31 6 40 3 9 1 16 -4 16 -6 0 -12 -10 -15 -22 -3 -22
-4 -22 -15 5 -12 29 -15 31 -25 20z"/>
<path d="M3036 1299 c-10 -54 -8 -66 8 -43 13 16 18 17 35 6 26 -15 26 -8 0
34 -26 42 -35 43 -43 3z m29 -9 c3 -5 1 -10 -4 -10 -6 0 -11 5 -11 10 0 6 2
10 4 10 3 0 8 -4 11 -10z"/>
<path d="M2535 1284 c-19 -45 -19 -50 0 -34 13 10 19 10 35 -5 11 -10 20 -15
20 -10 0 20 -24 85 -31 85 -5 0 -16 -16 -24 -36z"/>
<path d="M2947 1313 c-14 -4 -17 -13 -15 -41 3 -33 6 -37 28 -34 34 4 41 13
32 47 -9 31 -16 35 -45 28z m28 -23 c-3 -5 -10 -10 -16 -10 -5 0 -9 5 -9 10 0
6 7 10 16 10 8 0 12 -4 9 -10z m5 -30 c0 -5 -7 -10 -15 -10 -8 0 -15 5 -15 10
0 6 7 10 15 10 8 0 15 -4 15 -10z"/>
<path d="M2651 1273 c-1 -41 1 -43 27 -42 23 0 24 1 7 8 -12 5 -22 21 -26 42
-6 34 -6 33 -8 -8z"/>
<path d="M2737 1303 c-4 -3 -7 -21 -7 -40 0 -31 2 -33 33 -32 23 1 26 3 10 6
-13 2 -23 8 -23 13 0 5 10 10 23 13 22 4 22 4 -3 15 -24 10 -24 11 -2 11 12 1
22 6 22 11 0 11 -43 14 -53 3z"/>
<path d="M2827 1303 c-11 -10 -8 -73 2 -73 5 0 12 10 14 23 l4 22 2 -22 c0
-13 5 -23 10 -23 5 0 13 10 17 23 l8 22 7 -25 c6 -20 7 -17 8 18 1 48 -18 55
-30 11 l-6 -24 -8 28 c-7 27 -16 33 -28 20z"/>
<path d="M1464 4212 c-26 -4 -156 -111 -152 -124 7 -20 193 -237 204 -237 6
-1 19 8 29 19 18 20 18 21 -6 48 -56 61 -56 60 -14 94 67 56 77 116 28 170
-25 27 -52 36 -89 30z m50 -94 c8 -24 6 -32 -19 -58 -34 -36 -45 -37 -73 -7
-31 33 -30 43 8 72 43 32 71 29 84 -7z"/>
<path d="M3997 4114 c-79 -88 -87 -100 -87 -137 0 -72 69 -137 146 -137 33 0
45 9 130 97 89 91 93 97 78 115 -10 10 -22 18 -28 18 -6 0 -49 -38 -96 -85
-47 -47 -93 -85 -103 -85 -25 0 -67 44 -67 71 0 14 31 53 85 108 l85 87 -23
22 c-13 12 -25 22 -28 22 -2 0 -44 -43 -92 -96z"/>
<path d="M4243 3836 l-132 -93 16 -24 c9 -13 18 -26 19 -28 2 -2 26 14 55 35
47 34 52 36 61 19 6 -10 26 -35 45 -56 28 -31 42 -39 70 -39 63 0 113 45 113
103 0 20 -98 177 -110 177 -3 -1 -64 -43 -137 -94z m177 -80 c0 -32 -32 -51
-59 -36 -23 12 -66 69 -58 77 4 3 21 16 39 28 l33 22 22 -33 c13 -18 23 -44
23 -58z"/>
<path d="M1113 3833 c-32 -6 -91 -79 -99 -122 -8 -43 10 -81 49 -99 37 -18 73
-5 135 48 53 44 76 50 92 21 21 -41 -35 -110 -80 -98 -15 4 -24 -2 -35 -23
-13 -25 -13 -29 1 -34 63 -24 137 18 168 96 21 52 13 90 -26 123 -51 43 -76
35 -190 -56 -30 -24 -58 -20 -58 9 0 29 38 72 65 72 13 0 29 10 39 25 16 24
16 26 -9 35 -15 6 -27 9 -28 9 -1 -1 -12 -4 -24 -6z"/>
<path d="M4485 3582 c-122 -58 -144 -71 -155 -91 -16 -30 -12 -88 9 -129 47
-92 90 -96 244 -24 59 28 107 54 107 59 -1 4 -6 18 -13 30 -12 21 -12 21 -117
-27 -58 -27 -113 -49 -122 -50 -48 -1 -77 80 -40 112 9 9 61 36 114 61 92 43
97 47 89 69 -4 13 -14 24 -22 26 -8 1 -50 -15 -94 -36z"/>
<path d="M902 3537 c-11 -31 -9 -41 28 -119 22 -47 40 -88 40 -91 0 -3 -28 6
-62 20 -59 24 -63 24 -75 7 -7 -10 -13 -23 -13 -30 0 -11 270 -124 296 -124
10 0 23 29 24 51 0 4 -19 14 -43 23 -32 12 -48 26 -60 51 -19 40 -25 37 92 55
72 11 74 12 89 58 10 29 9 33 -6 28 -17 -5 -209 -46 -215 -46 -2 0 -18 34 -36
75 -18 41 -36 75 -40 75 -4 0 -12 -15 -19 -33z"/>
<path d="M4686 3261 c-3 -4 -1 -23 4 -42 6 -19 10 -39 10 -45 0 -6 -58 -23
-130 -39 -116 -25 -130 -31 -130 -49 0 -45 10 -46 135 -16 66 16 125 29 131
30 7 0 17 -20 23 -45 11 -44 23 -53 49 -37 10 7 7 34 -15 130 -25 112 -29 122
-49 122 -13 0 -25 -4 -28 -9z"/>
<path d="M776 3149 c-12 -62 -11 -63 96 -114 55 -27 97 -50 92 -51 -5 -2 -57
-6 -116 -9 l-107 -7 -7 -44 c-3 -25 -4 -47 -2 -49 2 -3 73 -18 157 -33 159
-30 168 -29 159 15 -3 14 -25 21 -116 37 -61 11 -110 21 -108 23 2 2 56 7 120
12 64 4 117 9 119 12 3 2 7 16 10 30 6 25 2 29 -108 79 -63 30 -114 55 -112
56 1 1 55 -8 120 -21 l117 -22 6 24 c4 14 3 28 -2 32 -5 4 -67 18 -139 30 -71
13 -139 25 -151 28 -17 4 -22 -1 -28 -28z"/>
<path d="M4640 2930 c-69 -10 -133 -19 -143 -19 -14 -1 -18 -8 -15 -33 2 -18
8 -32 13 -32 6 1 75 9 155 19 80 10 149 21 154 25 14 14 -3 60 -22 59 -9 -1
-73 -9 -142 -19z"/>
<path d="M4500 2740 l0 -30 70 0 71 0 -3 -67 -3 -68 -72 4 -73 3 0 -36 0 -36
119 0 c65 0 139 -3 165 -6 l46 -7 0 37 0 36 -65 0 -65 0 0 65 0 64 68 3 c64 3
67 4 70 29 4 34 -19 39 -194 39 l-134 0 0 -30z"/>
<path d="M886 2728 c-17 -16 -31 -45 -42 -88 -19 -78 -37 -102 -58 -80 -8 8
-18 27 -21 42 -5 21 -1 33 20 54 32 32 32 81 0 76 -38 -6 -67 -47 -73 -100 -7
-82 34 -142 99 -142 35 0 76 51 89 113 7 31 22 64 32 74 18 16 20 16 38 -3 10
-10 22 -31 25 -46 6 -22 1 -33 -24 -59 -63 -63 -25 -109 41 -50 31 28 33 33
33 101 0 68 -2 73 -33 101 -41 36 -90 39 -126 7z"/>
<path d="M2195 1898 c-8 -18 -36 -82 -64 -143 l-49 -110 36 -17 c20 -9 42 -17
47 -17 6 -1 19 22 30 49 11 28 22 50 26 50 4 0 23 -7 42 -15 70 -29 125 -16
152 35 36 70 12 109 -102 161 -47 21 -89 39 -95 39 -5 0 -15 -15 -23 -32z
m123 -81 c6 -5 12 -20 12 -33 0 -27 -30 -40 -60 -24 -24 13 -23 9 -9 48 11 31
25 33 57 9z"/>
<path d="M3263 1910 c-18 -11 -33 -22 -33 -26 0 -3 34 -66 76 -139 l75 -133
39 22 c22 11 40 26 40 31 -1 15 -145 258 -156 262 -5 2 -24 -6 -41 -17z"/>
<path d="M2965 1808 c-44 -12 -82 -22 -84 -24 -2 -2 13 -71 34 -155 l38 -151
41 6 c22 4 42 9 45 11 2 3 -1 28 -7 56 -23 99 -8 104 68 25 55 -57 57 -58 138
-30 17 5 -39 79 -79 103 l-27 16 24 28 c28 32 30 56 9 96 -24 48 -69 52 -200
19z m113 -76 c3 -18 -4 -26 -34 -38 -41 -17 -54 -9 -54 33 0 39 83 44 88 5z"/>
<path d="M2580 1793 c-52 -19 -93 -88 -93 -158 -1 -93 49 -148 148 -160 49 -7
114 5 144 24 12 8 37 128 28 137 -2 3 -141 23 -143 20 -1 0 -4 -16 -7 -33 -6
-31 -5 -33 23 -33 36 0 49 -19 25 -37 -30 -21 -79 -16 -105 12 -19 20 -22 32
-18 75 3 28 13 59 23 70 24 26 76 26 100 0 13 -14 31 -20 62 -20 23 0 43 5 43
10 0 30 -33 69 -70 84 -39 15 -128 20 -160 9z"/>
<path d="M1325 838 c-30 -16 -45 -39 -45 -69 0 -38 39 -66 111 -80 74 -15 98
-31 83 -56 -21 -34 -118 -29 -129 7 -9 29 -75 29 -75 0 0 -29 45 -68 87 -76
53 -10 132 1 161 23 20 15 28 30 30 61 3 37 0 44 -29 61 -17 11 -48 22 -68 26
-97 17 -129 45 -75 65 31 12 67 4 88 -19 18 -20 76 -17 76 4 0 18 -27 45 -57
56 -33 12 -134 11 -158 -3z"/>
<path d="M1612 708 l3 -143 35 0 35 0 0 140 0 140 -38 3 -38 3 3 -143z"/>
<path d="M1730 825 c0 -24 3 -25 55 -25 l55 0 0 -121 0 -120 33 3 32 3 3 118
3 117 49 0 c47 0 50 2 50 25 l0 25 -140 0 -140 0 0 -25z"/>
<path d="M2060 751 c0 -117 8 -144 52 -172 45 -27 154 -23 195 7 34 26 40 52
42 172 l1 93 -37 -3 -38 -3 -3 -104 c-1 -58 -8 -111 -14 -118 -17 -21 -85 -16
-108 7 -17 17 -20 33 -20 120 l0 100 -35 0 -35 0 0 -99z"/>
<path d="M2422 708 l3 -143 119 2 c140 2 169 14 174 76 3 32 -1 39 -28 56 -24
14 -28 20 -15 24 23 9 37 54 24 79 -18 34 -70 48 -179 48 l-101 0 3 -142z
m207 73 c15 -26 -2 -37 -71 -45 l-58 -6 0 35 0 35 60 0 c48 0 61 -4 69 -19z
m-12 -97 c12 -3 25 -15 29 -27 10 -31 -21 -47 -88 -47 l-58 0 0 40 0 40 48 0
c26 0 57 -3 69 -6z"/>
<path d="M2850 832 c-74 -37 -102 -131 -60 -200 42 -69 165 -93 250 -49 105
54 105 196 -1 249 -45 24 -143 24 -189 0z m165 -57 c25 -24 34 -81 19 -120
-15 -37 -102 -58 -146 -34 -27 15 -49 71 -42 109 14 68 118 97 169 45z"/>
<path d="M3180 705 l0 -145 30 0 29 0 3 93 3 92 73 -92 c67 -85 77 -93 108
-93 l34 0 0 145 0 145 -35 0 -34 0 -3 -92 -3 -91 -70 91 c-63 83 -73 92 -102
92 l-33 0 0 -145z"/>
<path d="M3540 705 l0 -148 99 6 c107 5 150 21 178 64 23 35 23 121 0 156 -33
50 -62 61 -174 65 l-103 4 0 -147z m195 70 c19 -18 25 -35 25 -70 0 -65 -31
-95 -100 -95 l-50 0 0 95 0 95 50 0 c41 0 56 -5 75 -25z"/>
<path d="M3962 833 c-72 -35 -98 -110 -63 -188 16 -36 29 -50 63 -65 87 -40
207 -15 248 52 16 25 20 45 17 86 -4 59 -30 95 -84 118 -44 19 -140 17 -181
-3z m169 -59 c35 -37 33 -108 -5 -141 -43 -36 -119 -28 -153 16 -7 9 -13 35
-13 59 0 62 32 92 98 92 39 0 53 -5 73 -26z"/>
<path d="M2320 5095 c-25 -13 -40 -24 -35 -24 6 0 30 11 55 24 25 13 41 24 35
24 -5 0 -30 -11 -55 -24z"/>
<path d="M2170 5025 c-47 -24 -80 -44 -75 -44 6 0 48 20 95 44 47 24 81 44 75
44 -5 0 -48 -20 -95 -44z"/>
<path d="M3557 4955 c680 -351 1230 -786 1724 -1360 52 -60 114 -135 137 -166
l41 -55 4 -165 3 -164 2 167 2 166 -96 119 c-484 599 -1098 1096 -1807 1463
-96 50 -178 90 -183 90 -5 0 73 -43 173 -95z"/>
<path d="M2060 4970 c-9 -6 -10 -10 -3 -10 6 0 15 5 18 10 8 12 4 12 -15 0z"/>
<path d="M1865 4872 c-781 -409 -1416 -920 -1754 -1411 -47 -69 -51 -79 -49
-130 l1 -56 6 60 c5 49 14 72 49 123 179 261 492 572 837 833 272 206 651 441
953 593 51 25 92 48 92 51 0 7 4 9 -135 -63z"/>
<path d="M71 3219 c1 -30 5 -79 9 -109 6 -39 7 -24 3 50 -6 111 -14 150 -12
59z"/>
<path d="M93 3010 c0 -25 2 -35 4 -22 2 12 2 32 0 45 -2 12 -4 2 -4 -23z"/>
<path d="M5453 2970 c0 -36 2 -50 4 -32 2 17 2 47 0 65 -2 17 -4 3 -4 -33z"/>
<path d="M102 2935 c0 -16 5 -64 12 -105 8 -41 14 -64 14 -50 0 14 -5 61 -13
105 -7 44 -13 67 -13 50z"/>
<path d="M5443 2855 c0 -27 2 -38 4 -22 2 15 2 37 0 50 -2 12 -4 0 -4 -28z"/>
<path d="M5433 2765 c0 -22 2 -30 4 -17 2 12 2 30 0 40 -3 9 -5 -1 -4 -23z"/>
<path d="M132 2730 c-1 -14 5 -54 12 -90 8 -36 14 -56 14 -45 1 11 -5 52 -12
90 -8 39 -14 59 -14 45z"/>
<path d="M5422 2690 c0 -19 2 -27 5 -17 2 9 2 25 0 35 -3 9 -5 1 -5 -18z"/>
<path d="M5401 2569 c-7 -45 -10 -83 -8 -85 2 -3 10 32 17 76 7 44 11 83 8 85
-3 3 -10 -32 -17 -76z"/>
<path d="M162 2550 c0 -14 2 -19 5 -12 2 6 2 18 0 25 -3 6 -5 1 -5 -13z"/>
<path d="M172 2500 c0 -28 25 -133 26 -110 1 8 -5 42 -12 75 -8 33 -14 49 -14
35z"/>
<path d="M5382 2450 c0 -14 2 -19 5 -12 2 6 2 18 0 25 -3 6 -5 1 -5 -13z"/>
<path d="M5328 2232 c-26 -103 -50 -198 -53 -212 l-6 -25 12 25 c16 37 100
371 97 386 -2 7 -24 -72 -50 -174z"/>
<path d="M202 2355 c0 -11 4 -31 8 -45 6 -20 8 -21 8 -5 0 11 -4 31 -8 45 -6
20 -8 21 -8 5z"/>
<path d="M221 2272 c-1 -19 72 -308 75 -297 2 6 -14 78 -35 160 -22 83 -40
144 -40 137z"/>
<path d="M5232 1893 c-17 -53 -30 -99 -28 -101 2 -2 18 40 36 93 18 53 30 98
28 100 -2 2 -18 -39 -36 -92z"/>
<path d="M307 1930 c6 -38 31 -111 32 -95 0 6 -8 37 -19 70 -11 33 -17 44 -13
25z"/>
<path d="M342 1810 c0 -8 8 -37 18 -65 10 -27 18 -43 18 -35 0 8 -8 38 -18 65
-10 28 -18 43 -18 35z"/>
<path d="M5181 1749 c-6 -18 -9 -34 -7 -36 2 -2 9 10 15 28 6 18 9 34 7 36 -2
2 -9 -10 -15 -28z"/>
<path d="M5127 1608 c-20 -50 -35 -93 -33 -95 2 -2 20 37 40 88 20 50 35 93
33 95 -2 2 -20 -37 -40 -88z"/>
<path d="M381 1685 c-1 -15 60 -197 65 -192 2 2 -12 48 -30 103 -19 54 -35 95
-35 89z"/>
<path d="M5037 1398 c-26 -56 -45 -103 -43 -105 1 -2 24 42 50 98 26 56 45
103 43 105 -1 2 -24 -42 -50 -98z"/>
<path d="M456 1460 c10 -40 106 -282 110 -278 3 4 -86 241 -106 283 -9 17 -9
16 -4 -5z"/>
<path d="M4920 1152 c-125 -242 -328 -580 -463 -771 -45 -65 -58 -77 -102 -92
-27 -10 -45 -18 -39 -18 37 -3 101 33 128 72 69 97 248 381 318 502 91 158
232 425 227 430 -2 2 -33 -53 -69 -123z"/>
<path d="M571 1165 c-1 -17 133 -297 194 -406 151 -271 312 -471 378 -469 7 1
-1 7 -18 14 -48 21 -148 136 -245 283 -75 113 -195 340 -293 553 -9 19 -16 31
-16 25z"/>
<path d="M1175 281 c11 -4 36 -11 55 -15 24 -4 29 -3 15 3 -11 4 -36 11 -55
15 -24 4 -29 3 -15 -3z"/>
<path d="M4235 255 c-39 -14 -40 -14 -5 -8 41 7 82 22 60 22 -8 0 -33 -7 -55
-14z"/>
<path d="M1278 253 c7 -3 16 -2 19 1 4 3 -2 6 -13 5 -11 0 -14 -3 -6 -6z"/>
<path d="M1318 243 c7 -3 16 -2 19 1 4 3 -2 6 -13 5 -11 0 -14 -3 -6 -6z"/>
<path d="M1358 233 c7 -3 16 -2 19 1 4 3 -2 6 -13 5 -11 0 -14 -3 -6 -6z"/>
<path d="M4120 225 c-25 -7 -36 -13 -25 -13 11 0 38 5 60 13 52 17 24 17 -35
0z"/>
<path d="M1455 210 c39 -10 79 -18 90 -18 11 0 -14 8 -55 19 -41 10 -82 18
-90 17 -8 0 17 -8 55 -18z"/>
<path d="M4048 203 c7 -3 16 -2 19 1 4 3 -2 6 -13 5 -11 0 -14 -3 -6 -6z"/>
<path d="M3970 190 c-20 -6 -21 -8 -5 -8 11 0 31 4 45 8 20 6 21 8 5 8 -11 0
-31 -4 -45 -8z"/>
<path d="M1578 183 c6 -2 18 -2 25 0 6 3 1 5 -13 5 -14 0 -19 -2 -12 -5z"/>
<path d="M1628 173 c6 -2 18 -2 25 0 6 3 1 5 -13 5 -14 0 -19 -2 -12 -5z"/>
<path d="M3908 173 c6 -2 18 -2 25 0 6 3 1 5 -13 5 -14 0 -19 -2 -12 -5z"/>
<path d="M1678 163 c6 -2 18 -2 25 0 6 3 1 5 -13 5 -14 0 -19 -2 -12 -5z"/>
<path d="M3858 163 c6 -2 18 -2 25 0 6 3 1 5 -13 5 -14 0 -19 -2 -12 -5z"/>
<path d="M1733 153 c9 -2 23 -2 30 0 6 3 -1 5 -18 5 -16 0 -22 -2 -12 -5z"/>
<path d="M3765 150 c-27 -7 -27 -8 -5 -8 14 0 39 4 55 8 27 7 27 8 5 8 -14 0
-38 -4 -55 -8z"/>
<path d="M1793 143 c9 -2 23 -2 30 0 6 3 -1 5 -18 5 -16 0 -22 -2 -12 -5z"/>
<path d="M1853 133 c9 -2 23 -2 30 0 6 3 -1 5 -18 5 -16 0 -22 -2 -12 -5z"/>
<path d="M3693 133 c9 -2 23 -2 30 0 6 3 -1 5 -18 5 -16 0 -22 -2 -12 -5z"/>
<path d="M1913 123 c9 -2 25 -2 35 0 9 3 1 5 -18 5 -19 0 -27 -2 -17 -5z"/>
<path d="M3575 120 c-34 -6 -36 -7 -10 -8 17 0 48 3 70 7 33 7 35 9 10 8 -16
0 -48 -3 -70 -7z"/>
<path d="M1983 113 c9 -2 25 -2 35 0 9 3 1 5 -18 5 -19 0 -27 -2 -17 -5z"/>
<path d="M2058 103 c12 -2 30 -2 40 0 9 3 -1 5 -23 4 -22 0 -30 -2 -17 -4z"/>
<path d="M3478 103 c12 -2 30 -2 40 0 9 3 -1 5 -23 4 -22 0 -30 -2 -17 -4z"/>
<path d="M2148 93 c12 -2 32 -2 45 0 12 2 2 4 -23 4 -25 0 -35 -2 -22 -4z"/>
<path d="M3388 93 c12 -2 32 -2 45 0 12 2 2 4 -23 4 -25 0 -35 -2 -22 -4z"/>
<path d="M2243 83 c15 -2 39 -2 55 0 15 2 2 4 -28 4 -30 0 -43 -2 -27 -4z"/>
<path d="M3283 83 c15 -2 39 -2 55 0 15 2 2 4 -28 4 -30 0 -43 -2 -27 -4z"/>
<path d="M2363 73 c20 -2 54 -2 75 0 20 2 3 4 -38 4 -41 0 -58 -2 -37 -4z"/>
<path d="M3147 73 c18 -2 50 -2 70 0 21 2 7 4 -32 4 -38 0 -55 -2 -38 -4z"/>
<path d="M2636 59 c89 -5 230 -5 315 0 139 7 124 8 -161 8 -291 0 -303 -1
-154 -8z"/>
</g>
</svg>
